<svg width="48" height="49" viewBox="0 0 48 49" fill="none" xmlns="http://www.w3.org/2000/svg">
<path d="M25.4 28.5636L36.7 17.2636L33.9 14.3636L25.4 22.8636L21.1 18.6636L18.3 21.4636L25.4 28.5636ZM16 36.4636C14.9 36.4636 13.9583 36.072 13.175 35.2886C12.3917 34.5053 12 33.5636 12 32.4636V8.46362C12 7.36362 12.3917 6.42196 13.175 5.63862C13.9583 4.85529 14.9 4.46362 16 4.46362H40C41.1 4.46362 42.0417 4.85529 42.825 5.63862C43.6083 6.42196 44 7.36362 44 8.46362V32.4636C44 33.5636 43.6083 34.5053 42.825 35.2886C42.0417 36.072 41.1 36.4636 40 36.4636H16ZM16 32.4636H40V8.46362H16V32.4636ZM8 44.4636C6.9 44.4636 5.95833 44.072 5.175 43.2886C4.39167 42.5053 4 41.5636 4 40.4636V12.4636H8V40.4636H36V44.4636H8Z" fill="#B919E6"/>
</svg>
