<svg width="26" height="26" viewBox="0 0 26 26" fill="none" xmlns="http://www.w3.org/2000/svg">
<path d="M21.4499 5.00952H5.0234C4.47883 5.00952 3.95656 5.22585 3.57149 5.61092C3.18642 5.99599 2.97009 6.51826 2.97009 7.06283V19.3827C2.97009 19.9273 3.18642 20.4495 3.57149 20.8346C3.95656 21.2197 4.47883 21.436 5.0234 21.436H21.4499C21.9945 21.436 22.5167 21.2197 22.9018 20.8346C23.2869 20.4495 23.5032 19.9273 23.5032 19.3827V7.06283C23.5032 6.51826 23.2869 5.99599 22.9018 5.61092C22.5167 5.22585 21.9945 5.00952 21.4499 5.00952ZM21.4499 9.8348L13.2366 15.311L5.0234 9.8348V7.36775L13.2366 12.8429L21.4499 7.36775V9.8348Z" fill="#BBBBBB"/>
</svg>
