<svg width="52" height="53" viewBox="0 0 52 53" fill="none" xmlns="http://www.w3.org/2000/svg">
<rect y="0.574951" width="51.7222" height="51.7222" rx="9.23611" fill="white"/>
<path d="M25.8597 20.031C24.1606 20.031 22.5312 20.7059 21.3298 21.9073C20.1284 23.1087 19.4535 24.7382 19.4535 26.4372C19.4535 28.1362 20.1284 29.7656 21.3298 30.967C22.5312 32.1684 24.1606 32.8433 25.8597 32.8433C27.5587 32.8433 29.1881 32.1684 30.3895 30.967C31.5909 29.7656 32.2658 28.1362 32.2658 26.4372C32.2658 24.7382 31.5909 23.1087 30.3895 21.9073C29.1881 20.7059 27.5587 20.031 25.8597 20.031ZM25.8597 30.5976C24.7559 30.5976 23.6973 30.1591 22.9168 29.3786C22.1363 28.5981 21.6979 27.5396 21.6979 26.4358C21.6979 25.332 22.1363 24.2734 22.9168 23.493C23.6973 22.7125 24.7559 22.274 25.8597 22.274C26.9634 22.274 28.022 22.7125 28.8025 23.493C29.583 24.2734 30.0215 25.332 30.0215 26.4358C30.0215 27.5396 29.583 28.5981 28.8025 29.3786C28.022 30.1591 26.9634 30.5976 25.8597 30.5976Z" fill="#171717"/>
<path d="M32.5194 21.2892C33.3442 21.2892 34.0128 20.6206 34.0128 19.7957C34.0128 18.9709 33.3442 18.3022 32.5194 18.3022C31.6945 18.3022 31.0259 18.9709 31.0259 19.7957C31.0259 20.6206 31.6945 21.2892 32.5194 21.2892Z" fill="#171717"/>
<path d="M37.6828 18.2772C37.3621 17.449 36.872 16.6969 36.2438 16.069C35.6157 15.441 34.8634 14.9512 34.035 14.6308C33.0657 14.2669 32.0416 14.0702 31.0065 14.0489C29.6723 13.9907 29.2498 13.9741 25.8666 13.9741C22.4834 13.9741 22.0498 13.9741 20.7267 14.0489C19.6923 14.0691 18.669 14.2659 17.701 14.6308C16.8724 14.9508 16.1199 15.4405 15.4917 16.0685C14.8635 16.6964 14.3735 17.4488 14.0532 18.2772C13.6892 19.2465 13.4929 20.2706 13.4727 21.3057C13.4131 22.6385 13.3951 23.0611 13.3951 26.4456C13.3951 29.8288 13.3951 30.2597 13.4727 31.5855C13.4934 32.6218 13.6888 33.6443 14.0532 34.6154C14.3744 35.4436 14.8649 36.1956 15.4932 36.8235C16.1215 37.4514 16.874 37.9412 17.7023 38.2619C18.6686 38.6403 19.6923 38.8512 20.7295 38.8853C22.0636 38.9435 22.4862 38.9615 25.8694 38.9615C29.2526 38.9615 29.6862 38.9615 31.0093 38.8853C32.0443 38.8642 33.0683 38.668 34.0378 38.3048C34.8659 37.9837 35.618 37.4934 36.2461 36.8653C36.8742 36.2372 37.3644 35.4851 37.6856 34.657C38.05 33.6872 38.2453 32.6648 38.2661 31.6285C38.3257 30.2957 38.3437 29.8732 38.3437 26.4886C38.3437 23.104 38.3437 22.6745 38.2661 21.3487C38.25 20.2989 38.0526 19.2598 37.6828 18.2772ZM35.9954 31.483C35.9864 32.2814 35.8407 33.0724 35.5645 33.8216C35.3565 34.3603 35.0379 34.8496 34.6295 35.2578C34.221 35.6661 33.7316 35.9843 33.1927 36.192C32.4518 36.467 31.6692 36.6127 30.879 36.6229C29.5629 36.6839 29.1916 36.6991 25.8167 36.6991C22.4391 36.6991 22.0941 36.6991 20.753 36.6229C19.9632 36.6132 19.181 36.4675 18.4408 36.192C17.9 35.9856 17.4086 35.6679 16.9984 35.2596C16.5882 34.8513 16.2682 34.3614 16.0592 33.8216C15.7869 33.0805 15.6413 32.2988 15.6284 31.5093C15.5688 30.1932 15.5549 29.8219 15.5549 26.447C15.5549 23.0708 15.5549 22.7258 15.6284 21.3833C15.6373 20.5854 15.7831 19.7948 16.0592 19.0461C16.4818 17.953 17.3477 17.0927 18.4408 16.6743C19.1814 16.4002 19.9634 16.2545 20.753 16.2434C22.0706 16.1839 22.4405 16.1672 25.8167 16.1672C29.193 16.1672 29.5393 16.1672 30.879 16.2434C31.6693 16.2529 32.452 16.3987 33.1927 16.6743C33.7315 16.8825 34.2209 17.201 34.6293 17.6095C35.0378 18.018 35.3563 18.5073 35.5645 19.0461C35.8368 19.7873 35.9825 20.5689 35.9954 21.3584C36.055 22.6759 36.0702 23.0458 36.0702 26.4221C36.0702 29.797 36.0702 30.1599 36.0106 31.4844H35.9954V31.483Z" fill="#171717"/>
</svg>
