<svg width="32" height="33" viewBox="0 0 32 33" fill="none" xmlns="http://www.w3.org/2000/svg">
<path d="M26.24 3.02368H5.76C3.9936 3.02368 2.56 4.45728 2.56 6.22368V26.7037C2.56 28.4701 3.9936 29.9037 5.76 29.9037H26.24C28.0064 29.9037 29.44 28.4701 29.44 26.7037V6.22368C29.44 4.45728 28.0064 3.02368 26.24 3.02368ZM10.88 13.2637V25.4237H7.04V13.2637H10.88ZM7.04 9.72448C7.04 8.82848 7.808 8.14368 8.96 8.14368C10.112 8.14368 10.8352 8.82848 10.88 9.72448C10.88 10.6205 10.1632 11.3437 8.96 11.3437C7.808 11.3437 7.04 10.6205 7.04 9.72448ZM24.96 25.4237H21.12C21.12 25.4237 21.12 19.4973 21.12 19.0237C21.12 17.7437 20.48 16.4637 18.88 16.4381H18.8288C17.28 16.4381 16.64 17.7565 16.64 19.0237C16.64 19.6061 16.64 25.4237 16.64 25.4237H12.8V13.2637H16.64V14.9021C16.64 14.9021 17.8752 13.2637 20.3584 13.2637C22.8992 13.2637 24.96 15.0109 24.96 18.5501V25.4237Z" fill="black"/>
</svg>
