<svg width="52" height="52" viewBox="0 0 52 52" fill="none" xmlns="http://www.w3.org/2000/svg">
<rect y="0.111084" width="51.7222" height="51.7222" rx="9.23611" fill="white"/>
<path d="M36.2401 13.5601H15.7601C13.9937 13.5601 12.5601 14.9937 12.5601 16.7601V37.2401C12.5601 39.0065 13.9937 40.4401 15.7601 40.4401H36.2401C38.0065 40.4401 39.4401 39.0065 39.4401 37.2401V16.7601C39.4401 14.9937 38.0065 13.5601 36.2401 13.5601ZM20.8801 23.8001V35.9601H17.0401V23.8001H20.8801ZM17.0401 20.2609C17.0401 19.3649 17.8081 18.6801 18.9601 18.6801C20.1121 18.6801 20.8353 19.3649 20.8801 20.2609C20.8801 21.1569 20.1633 21.8801 18.9601 21.8801C17.8081 21.8801 17.0401 21.1569 17.0401 20.2609ZM34.9601 35.9601H31.1201C31.1201 35.9601 31.1201 30.0337 31.1201 29.5601C31.1201 28.2801 30.4801 27.0001 28.8801 26.9745H28.8289C27.2801 26.9745 26.6401 28.2929 26.6401 29.5601C26.6401 30.1425 26.6401 35.9601 26.6401 35.9601H22.8001V23.8001H26.6401V25.4385C26.6401 25.4385 27.8753 23.8001 30.3585 23.8001C32.8993 23.8001 34.9601 25.5473 34.9601 29.0865V35.9601Z" fill="black"/>
</svg>
