<svg width="245" height="25" viewBox="0 0 245 25" fill="none" xmlns="http://www.w3.org/2000/svg">
<mask id="mask0_11_317" style="mask-type:luminance" maskUnits="userSpaceOnUse" x="49" y="0" width="23" height="25">
<path d="M71.2034 0.942276H49.3644V24.2908H71.2034V0.942276Z" fill="white"/>
</mask>
<g mask="url(#mask0_11_317)">
<mask id="mask1_11_317" style="mask-type:luminance" maskUnits="userSpaceOnUse" x="36" y="-10" width="42" height="43">
<path d="M77.381 7.28588L53.8217 -9.79843L36.7474 15.3302L60.3066 32.4145L77.381 7.28588Z" fill="white"/>
</mask>
<g mask="url(#mask1_11_317)">
<path d="M54.8879 1.05704H49.3644V24.1761H54.8879V1.05704Z" fill="#B919E6"/>
</g>
<mask id="mask2_11_317" style="mask-type:luminance" maskUnits="userSpaceOnUse" x="37" y="-7" width="40" height="41">
<path d="M76.4744 6.1183L50.9341 -6.46495L37.9248 21.2516L63.4651 33.8349L76.4744 6.1183Z" fill="white"/>
</mask>
<g mask="url(#mask2_11_317)">
<path d="M72.8556 25.8505L74.5347 20.9243L53.277 12.7339L51.5979 17.6601L72.8556 25.8505Z" fill="#B919E6"/>
<path d="M51.6044 17.9601L51.879 12.6166L53.592 12.8217L51.6044 17.9601Z" fill="#B919E6"/>
</g>
<mask id="mask3_11_317" style="mask-type:luminance" maskUnits="userSpaceOnUse" x="38" y="-11" width="42" height="44">
<path d="M79.2814 8.55995L57.5474 -10.0643L38.1488 13.9296L59.8828 32.5539L79.2814 8.55995Z" fill="white"/>
</mask>
<g mask="url(#mask3_11_317)">
<path d="M67.3424 3.90249L64.9584 0.97525L47.7961 16.0359L50.1801 18.9631L67.3424 3.90249Z" fill="#B919E6"/>
</g>
</g>
<path d="M83.8979 2.12897H84.2348L89.25 0.482681H78.549L83.8979 2.12897Z" fill="#B919E6"/>
<path d="M83.9134 1.95953L78.5781 0.482666L72.786 22.8139L78.1213 24.2908L83.9134 1.95953Z" fill="#B919E6"/>
<path d="M78.0479 24.2908H72.786V22.6636L78.0479 24.2908Z" fill="#B919E6"/>
<path d="M93.4364 13.6725V9.70392L74.3715 9.70392V13.6725L93.4364 13.6725Z" fill="#B919E6"/>
<path d="M83.9134 1.95958L89.2487 0.482712L95.0408 22.814L89.7055 24.2909L83.9134 1.95958Z" fill="#B919E6"/>
<path d="M89.7789 24.2909H95.0408V22.6637L89.7789 24.2909Z" fill="#B919E6"/>
<path d="M106 0.793808H100.476V23.9129H106V0.793808Z" fill="#B919E6"/>
<mask id="mask4_11_317" style="mask-type:luminance" maskUnits="userSpaceOnUse" x="0" y="0" width="23" height="25">
<path d="M22.6863 0.811447H0.00305176V24.2908H22.6863V0.811447Z" fill="white"/>
</mask>
<g mask="url(#mask4_11_317)">
<path d="M2.24427 24.275L2.08087 1.32724L11.6446 13.0288L20.6084 1.32724L20.5384 23.924" stroke="#B919E6" stroke-width="4.26326" stroke-linejoin="round"/>
<path d="M11.696 13.011L11.5983 24.2731" stroke="#B919E6" stroke-width="3.92668" stroke-linejoin="round"/>
</g>
<path d="M0 1.15587V0.121628H4.23755L11.4509 13.0288L9.8766 12.8535L0.912195 3.59261V1.1202L0 1.15587Z" fill="#B919E6"/>
<path d="M22.6864 1.15588V0.121643H18.4488L11.2355 13.0288L12.8098 12.8535L21.7742 3.59262V1.12022L22.6864 1.15588Z" fill="#B919E6"/>
<path d="M47.2592 15.7852C45.3445 22.0922 38.6071 25.7289 32.502 23.7508C26.397 21.7727 22.8767 14.8125 24.7914 8.50556C26.7062 2.19859 33.4436 -1.43809 39.5487 0.53998C45.6537 2.51804 49.174 9.47826 47.2592 15.7852ZM45.1678 12.165C45.2811 10.1634 44.8825 8.00304 43.8481 6.30657C42.8425 4.65727 41.222 3.26027 39.4296 2.65145C37.2158 1.89952 34.5258 1.85753 32.444 2.93952C30.1894 4.11136 28.3588 6.5147 27.6923 9.02948C27.1311 11.1465 27.5795 13.6245 28.6061 15.5462C29.6314 17.4654 31.5005 18.9474 33.4498 19.8133C34.6592 20.3505 36.0694 20.4032 37.3769 20.2453C38.6997 20.0855 40.025 19.6174 41.1453 18.8733C42.2321 18.1515 43.1529 17.1236 43.835 15.99C44.5276 14.8392 45.0912 13.5178 45.1678 12.165Z" fill="#B919E6"/>
<path d="M33.8672 1.12533C28.7065 2.39359 25.4991 7.77555 26.7268 13.1069C27.9544 18.4384 33.1641 21.7518 38.3248 20.4835C43.4856 19.2152 46.6927 13.8333 45.465 8.50194C44.2374 3.17054 39.0279 -0.142948 33.8672 1.12533ZM34.8361 2.98491C38.7425 2.0249 43.0001 5.1534 43.9293 9.18892C44.8586 13.2244 41.6791 17.1257 37.7727 18.0857C33.8664 19.0457 29.9771 16.5721 29.0479 12.5365C28.1186 8.50101 30.9298 3.9449 34.8361 2.98491Z" fill="#B919E6"/>
<g clip-path="url(#clip0_11_317)">
<path d="M134.843 20.1168C132.618 21.6547 129.694 22.134 127.095 21.3866C124.496 20.6393 122.273 18.68 121.205 16.1954C120.139 13.7139 120.242 10.7667 121.442 8.34698C122.642 5.92722 124.908 4.06966 127.505 3.32603C130.093 2.58469 132.98 2.9528 135.3 4.32005" stroke="#B919E6" stroke-width="4.91899" stroke-linecap="square"/>
<mask id="mask5_11_317" style="mask-type:luminance" maskUnits="userSpaceOnUse" x="221" y="12" width="27" height="19">
<path d="M221.561 12.618H247.843V30.1396H221.561V12.618Z" fill="white"/>
</mask>
<g mask="url(#mask5_11_317)">
<path d="M226.787 19.8619C229.009 21.4288 231.914 21.9878 234.558 21.3575C237.203 20.7272 239.544 18.9181 240.82 16.5175C242.221 13.8821 242.301 10.5958 241.077 7.87363C239.853 5.15141 237.365 3.04119 234.494 2.22611C231.774 1.45403 228.746 1.84021 226.307 3.27014" stroke="#B919E6" stroke-width="5.16654" stroke-linecap="square"/>
</g>
<path d="M233.311 0.570615C233.855 0.574712 235.755 0.373331 236.296 0.450747C238.461 0.76039 240.413 1.3609 242.117 2.73333L244.069 4.30619L241.441 7.37683L239.489 6.14619C238.415 5.46872 237.02 4.76032 235.659 4.54627C234.405 4.34879 232.523 4.30216 231.35 4.79001C230.31 5.2228 228.981 5.14756 228.623 7.84255C227.643 15.2306 239.082 6.38796 243.325 9.73889C244.421 10.6532 244.307 11.2012 244.477 12.618C244.647 14.0348 243.677 16.6844 242.829 17.8319L241.968 19.1703L237.307 16.8677C235.651 19.2709 239.437 17.2176 238.366 14.2752C237.951 13.3044 234.185 14.669 232.409 15.0127C231.338 15.2136 230.12 15.3199 228.819 15.0738C227.492 14.823 226.133 14.2078 225.09 13.0287C224.167 11.9866 223.683 10.7113 223.585 9.41384C223.487 8.12937 223.772 6.90583 224.3 5.83323C225.349 3.7026 227.209 2.37558 229.071 1.60075C230.586 0.970723 231.679 0.558382 233.311 0.570615Z" fill="#B919E6"/>
<path d="M163.22 16.0205C161.318 22.0857 154.624 25.583 148.559 23.6808C142.494 21.7785 138.997 15.0851 140.899 9.01995C142.801 2.95476 149.495 -0.54251 155.56 1.35973C161.625 3.26197 165.122 9.95535 163.22 16.0205ZM161.142 12.5391C161.255 10.6142 160.859 8.53669 159.831 6.90526C158.832 5.31918 157.222 3.97574 155.441 3.39026C153.242 2.66716 150.57 2.62678 148.501 3.66729C146.262 4.7942 144.443 7.10541 143.781 9.52378C143.223 11.5596 143.669 13.9427 144.689 15.7907C145.707 17.6363 147.564 19.0615 149.501 19.8942C150.702 20.4108 152.103 20.4615 153.402 20.3096C154.716 20.156 156.033 19.7058 157.146 18.9902C158.226 18.2961 159.14 17.3076 159.818 16.2175C160.506 15.1108 161.066 13.84 161.142 12.5391Z" fill="#B919E6"/>
<path d="M149.915 1.9226C144.788 3.14225 141.602 8.31789 142.822 13.4449C144.041 18.5719 149.217 21.7583 154.344 20.5387C159.471 19.319 162.657 14.1434 161.438 9.01643C160.218 3.88941 155.042 0.702949 149.915 1.9226ZM150.878 3.7109C154.759 2.78769 158.989 5.79626 159.912 9.67708C160.835 13.5579 157.676 17.3096 153.795 18.2328C149.915 19.156 146.051 16.7772 145.128 12.8964C144.204 9.01554 146.997 4.63409 150.878 3.7109Z" fill="#B919E6"/>
<mask id="mask6_11_317" style="mask-type:luminance" maskUnits="userSpaceOnUse" x="165" y="1" width="23" height="24">
<path d="M187.99 1.62076H165.454V24.2H187.99V1.62076Z" fill="white"/>
</mask>
<g mask="url(#mask6_11_317)">
<path d="M167.681 24.1849L167.519 2.11679L177.02 13.3697L185.925 2.11679L185.856 23.8473" stroke="#B919E6" stroke-width="4.23541" stroke-linejoin="round"/>
<path d="M177.071 13.3527L176.974 24.183" stroke="#B919E6" stroke-width="3.90103" stroke-linejoin="round"/>
</g>
<path d="M165.452 1.95199V0.957397H169.661L176.828 13.3697L175.264 13.2012L166.358 4.29532V1.91769L165.452 1.95199Z" fill="#B919E6"/>
<path d="M187.99 1.95199V0.957397H183.78L176.614 13.3697L178.178 13.2012L187.083 4.29532V1.91769L187.99 1.95199Z" fill="#B919E6"/>
<mask id="mask7_11_317" style="mask-type:luminance" maskUnits="userSpaceOnUse" x="180" y="-9" width="41" height="41">
<path d="M220.874 7.59423L197.469 -8.83514L180.506 15.3301L203.911 31.7595L220.874 7.59423Z" fill="white"/>
</mask>
<g mask="url(#mask7_11_317)">
<path d="M198.528 1.60419H193.04V23.8369H198.528V1.60419Z" fill="#B919E6"/>
</g>
<mask id="mask8_11_317" style="mask-type:luminance" maskUnits="userSpaceOnUse" x="191" y="19" width="10" height="6">
<path d="M200.392 19.0762H191.176V24.249H200.392V19.0762Z" fill="white"/>
</mask>
<g mask="url(#mask8_11_317)">
<path d="M206.917 24.2005V20.384H187.977V24.2005H206.917Z" fill="#B919E6"/>
</g>
<mask id="mask9_11_317" style="mask-type:luminance" maskUnits="userSpaceOnUse" x="191" y="-2" width="10" height="6">
<path d="M200.392 -1.30775H191.176V3.86498H200.392V-1.30775Z" fill="white"/>
</mask>
<g mask="url(#mask9_11_317)">
<path d="M206.917 3.81647V1.52588e-05L187.977 1.52588e-05V3.81647L206.917 3.81647Z" fill="#B919E6"/>
</g>
<path d="M218.938 20.1082C216.709 21.6495 213.778 22.1298 211.173 21.3808C208.569 20.6318 206.341 18.6683 205.271 16.1782C204.202 13.6912 204.305 10.7375 205.508 8.31243C206.711 5.88735 208.982 4.02569 211.584 3.28043C214.178 2.53745 217.071 2.90638 219.396 4.27664" stroke="#B919E6" stroke-width="4.92983" stroke-linecap="square"/>
</g>
<defs>
<clipPath id="clip0_11_317">
<rect width="126.532" height="24.2004" fill="white" transform="translate(118)"/>
</clipPath>
</defs>
</svg>
