<svg width="48" height="52" viewBox="0 0 48 52" fill="none" xmlns="http://www.w3.org/2000/svg">
<path d="M22.0748 7.08722C9.88322 7.08722 4.42044e-06 16.9691 0 29.159C4.42044e-06 41.3489 9.88322 51.2308 22.0748 51.2308C34.2664 51.2308 44.1496 41.3489 44.1496 29.159C44.4977 20.7724 39.611 15.8128 39.5972 15.5002C48.1345 32.6945 35.1193 47.7432 23.147 47.4605C11.7722 47.4605 1.80747 38.8895 1.80747 27.5162C1.81514 16.3585 16.9811 7.23945 27.6845 7.64531C27.3717 7.63156 22.388 7.08764 22.0748 7.08722Z" fill="#B919E6"/>
<path d="M34.5814 43.2432C34.5814 43.2432 27.2619 40.9198 27.2619 35.5761C27.2619 30.2324 32.1416 25.4696 32.1416 25.4696C32.1416 25.4696 35.0174 23.1279 36.7912 21.0093C37.7537 19.8597 38.4379 14.8931 37.4401 16.1176C36.7003 17.0256 31.2345 22.0602 29.7916 21.8953C28.9389 21.7979 29.6132 20.8515 29.6132 20.8515C29.6132 20.8515 32.6517 17.6604 33.7714 14.9665C34.8623 12.3419 33.5861 10.4365 32.3126 8.39941C30.3559 11.0568 25.5857 14.33 25.5857 14.33C25.5857 14.33 23.1871 14.213 21.4418 14.7365C20.1048 15.1376 14.192 19.6826 13.4001 20.0471C9.36258 21.9056 3.23832 22.945 3.23832 22.945C3.23832 22.945 4.1884 26.6994 7.5612 27.9619C8.94701 28.4806 8.00909 29.879 8.00909 29.879C8.00909 29.879 3.23502 40.3459 1.84754 35.1684C0.460063 29.991 4.98107 41.8179 4.98107 41.8179L22.0834 50.2404L34.6328 46.3797L34.5814 43.2432Z" fill="#B919E6"/>
<path d="M42.8511 9.7353L41.8327 6.1997L38.2634 5.30507L41.7994 4.28684L42.6942 0.717965L43.7126 4.25356L47.2819 5.14819L43.7459 6.16643L42.8511 9.7353Z" fill="#B919E6"/>
</svg>
