<svg width="37" height="37" viewBox="0 0 37 37" fill="none" xmlns="http://www.w3.org/2000/svg">
<path d="M18.5636 33.4636C16.4698 33.4636 14.502 33.0698 12.6604 32.2823C10.8189 31.4948 9.21693 30.4198 7.85465 29.0573C6.49238 27.6948 5.41391 26.1011 4.61926 24.2761C3.8246 22.4511 3.42727 20.5136 3.42727 18.4636C3.42727 14.5386 4.73909 11.1636 7.36272 8.33857C9.98636 5.51357 13.2154 3.91357 17.05 3.53857V8.03857C14.4516 8.38857 12.2883 9.54482 10.5603 11.5073C8.83221 13.4698 7.96818 15.7886 7.96818 18.4636C7.96818 21.3636 9.00249 23.8386 11.0711 25.8886C13.1398 27.9386 15.6373 28.9636 18.5636 28.9636C20.2286 28.9636 21.7864 28.6136 23.237 27.9136C24.6876 27.2136 25.9048 26.2636 26.8886 25.0636L30.8241 27.3136C29.4618 29.1886 27.7085 30.6823 25.5642 31.7948C23.4199 32.9073 21.0864 33.4636 18.5636 33.4636ZM17.05 24.4636V19.9636H12.5091V16.9636H17.05V12.4636H20.0773V16.9636H24.6182V19.9636H20.0773V24.4636H17.05ZM32.4134 24.5386L28.4779 22.2886C28.705 21.6886 28.8753 21.0698 28.9888 20.4323C29.1023 19.7948 29.1591 19.1386 29.1591 18.4636C29.1591 15.7886 28.2951 13.4698 26.567 11.5073C24.8389 9.54482 22.6757 8.38857 20.0773 8.03857V3.53857C23.9118 3.91357 27.1409 5.51357 29.7645 8.33857C32.3882 11.1636 33.7 14.5386 33.7 18.4636C33.7 19.5636 33.5991 20.6261 33.3973 21.6511C33.1954 22.6761 32.8675 23.6386 32.4134 24.5386Z" fill="#B919E6"/>
</svg>
