<svg width="48" height="49" viewBox="0 0 48 49" fill="none" xmlns="http://www.w3.org/2000/svg">
<path d="M19.35 27.8636L21.1 22.1636L16.5 18.4636H22.2L24 12.8636L25.8 18.4636H31.5L26.85 22.1636L28.6 27.8636L24 24.3136L19.35 27.8636ZM12 46.4636V31.0136C10.7333 29.6136 9.75 28.0136 9.05 26.2136C8.35 24.4136 8 22.497 8 20.4636C8 15.997 9.55 12.2136 12.65 9.11362C15.75 6.01362 19.5333 4.46362 24 4.46362C28.4667 4.46362 32.25 6.01362 35.35 9.11362C38.45 12.2136 40 15.997 40 20.4636C40 22.497 39.65 24.4136 38.95 26.2136C38.25 28.0136 37.2667 29.6136 36 31.0136V46.4636L24 42.4636L12 46.4636ZM24 32.4636C27.3333 32.4636 30.1667 31.297 32.5 28.9636C34.8333 26.6303 36 23.797 36 20.4636C36 17.1303 34.8333 14.297 32.5 11.9636C30.1667 9.63029 27.3333 8.46362 24 8.46362C20.6667 8.46362 17.8333 9.63029 15.5 11.9636C13.1667 14.297 12 17.1303 12 20.4636C12 23.797 13.1667 26.6303 15.5 28.9636C17.8333 31.297 20.6667 32.4636 24 32.4636ZM16 40.5136L24 38.4636L32 40.5136V34.3136C30.8333 34.9803 29.575 35.5053 28.225 35.8886C26.875 36.272 25.4667 36.4636 24 36.4636C22.5333 36.4636 21.125 36.272 19.775 35.8886C18.425 35.5053 17.1667 34.9803 16 34.3136V40.5136Z" fill="#B919E6"/>
</svg>
