<svg width="24" height="25" viewBox="0 0 24 25" fill="none" xmlns="http://www.w3.org/2000/svg">
<path fill-rule="evenodd" clip-rule="evenodd" d="M18.403 6.09665C17.5714 5.25954 16.5819 4.59577 15.4919 4.1438C14.4019 3.69183 13.233 3.46065 12.053 3.46365C7.105 3.46365 3.077 7.49065 3.075 12.4407C3.075 14.0227 3.488 15.5667 4.273 16.9287L3 21.5797L7.759 20.3307C9.07539 21.0472 10.5502 21.423 12.049 21.4237H12.053C17 21.4237 21.028 17.3967 21.03 12.4467C21.0334 11.2671 20.803 10.0986 20.3521 9.00871C19.9012 7.91878 19.2387 6.92902 18.403 6.09665ZM12.053 19.9087H12.05C10.7135 19.9088 9.40163 19.5492 8.252 18.8677L7.98 18.7057L5.156 19.4467L5.909 16.6937L5.732 16.4117C4.98479 15.2221 4.58923 13.8454 4.591 12.4407C4.593 8.32665 7.94 4.97965 12.056 4.97965C13.0363 4.97747 14.0072 5.16973 14.9127 5.5453C15.8181 5.92087 16.6401 6.47229 17.331 7.16765C18.0256 7.85969 18.5762 8.68255 18.9509 9.58865C19.3256 10.4948 19.517 11.4661 19.514 12.4467C19.512 16.5607 16.165 19.9087 12.053 19.9087ZM16.146 14.3197C15.921 14.2067 14.819 13.6647 14.613 13.5897C14.408 13.5147 14.259 13.4777 14.109 13.7017C13.959 13.9257 13.529 14.4307 13.398 14.5807C13.267 14.7307 13.136 14.7487 12.912 14.6367C12.688 14.5247 11.965 14.2877 11.108 13.5237C10.441 12.9287 9.991 12.1947 9.86 11.9697C9.729 11.7447 9.846 11.6237 9.959 11.5117C10.06 11.4117 10.183 11.2497 10.295 11.1187C10.407 10.9877 10.444 10.8947 10.519 10.7447C10.594 10.5947 10.557 10.4637 10.5 10.3517C10.444 10.2387 9.995 9.13465 9.808 8.68565C9.627 8.25065 9.442 8.30865 9.304 8.30265C9.16108 8.29681 9.01804 8.29414 8.875 8.29465C8.76126 8.29755 8.64934 8.32392 8.54626 8.3721C8.44318 8.42028 8.35117 8.48924 8.276 8.57465C8.07 8.79965 7.491 9.34165 7.491 10.4457C7.491 11.5497 8.295 12.6167 8.407 12.7667C8.519 12.9167 9.989 15.1817 12.239 16.1537C12.775 16.3847 13.193 16.5227 13.518 16.6267C14.055 16.7977 14.544 16.7727 14.931 16.7157C15.362 16.6517 16.258 16.1737 16.445 15.6497C16.632 15.1257 16.632 14.6767 16.576 14.5827C16.52 14.4887 16.369 14.4317 16.146 14.3197Z" fill="#BBBBBB"/>
</svg>
